<?xml version="1.0" standalone="no"?>
<!DOCTYPE svg PUBLIC "-//W3C//DTD SVG 20010904//EN"
 "http://www.w3.org/TR/2001/REC-SVG-20010904/DTD/svg10.dtd">
<svg version="1.0" xmlns="http://www.w3.org/2000/svg"
 width="800.000000pt" height="600.000000pt" viewBox="0 0 800.000000 600.000000"
 preserveAspectRatio="xMidYMid meet">
<metadata>
Created by potrace 1.12, written by Peter Selinger 2001-2015
</metadata>
<g transform="translate(0.000000,600.000000) scale(0.100000,-0.100000)"
fill="#000000" stroke="none">
<path d="M3816 5890 c-866 -55 -1686 -526 -2182 -1255 -104 -152 -181 -293
-272 -495 -11 -25 -36 -90 -55 -145 -115 -325 -168 -626 -168 -965 0 -132 17
-416 26 -430 2 -4 9 -38 15 -76 6 -38 24 -123 41 -189 174 -699 586 -1290
1184 -1697 334 -227 714 -378 1150 -457 85 -16 374 -41 465 -41 91 0 380 25
465 41 207 37 443 103 610 171 177 71 376 176 530 278 159 107 398 310 505
430 36 40 75 85 88 99 13 14 56 69 96 121 322 422 520 922 576 1452 13 125 13
451 0 576 -65 619 -320 1189 -738 1649 -501 550 -1196 885 -1937 933 -165 11
-223 11 -399 0z m534 -74 c468 -62 863 -207 1230 -451 182 -122 277 -201 440
-364 436 -439 691 -946 793 -1576 17 -109 20 -174 20 -405 0 -297 -11 -401
-68 -650 -180 -781 -717 -1468 -1445 -1847 -280 -146 -529 -225 -930 -295
-101 -17 -625 -17 -735 0 -304 49 -488 99 -730 200 -744 309 -1328 941 -1585
1712 -185 557 -185 1204 1 1763 140 421 357 773 674 1093 280 283 603 498 958
638 232 92 386 131 727 185 92 14 533 12 650 -3z"/>
<path d="M4120 5756 c-115 -26 -192 -86 -238 -184 -24 -50 -27 -70 -27 -157 0
-83 4 -108 23 -150 48 -105 142 -170 260 -181 181 -17 317 54 376 196 78 188
-3 394 -182 459 -74 27 -144 32 -212 17z m175 -47 c59 -31 109 -83 141 -147
26 -51 29 -67 29 -157 0 -91 -3 -105 -30 -159 -31 -61 -83 -112 -125 -123 -14
-3 -35 -12 -46 -20 -23 -15 -44 -12 -122 13 -93 30 -143 73 -187 162 -32 65
-44 176 -26 249 17 68 64 136 119 172 43 28 55 31 127 31 62 0 89 -5 120 -21z"/>
<path d="M3464 5699 c-45 -13 -38 17 -88 -376 -20 -153 -29 -196 -42 -200 -7
-2 -250 234 -383 374 -17 17 -62 11 -99 -13 l-23 -15 33 -22 c57 -38 81 -101
173 -450 18 -66 18 -70 1 -98 -28 -47 -24 -47 112 1 40 15 41 26 3 33 -16 3
-38 19 -49 34 -30 42 -103 335 -88 351 4 3 79 -66 166 -153 87 -88 165 -160
172 -160 15 0 23 33 37 145 24 202 43 326 51 334 4 4 15 -2 23 -15 19 -29 147
-334 147 -349 0 -5 -5 -19 -12 -30 -7 -10 -9 -22 -5 -26 8 -8 144 33 152 46 3
5 -12 17 -32 27 -38 18 -54 47 -118 213 -7 19 -34 84 -59 144 -46 110 -56 162
-34 184 19 19 -3 30 -38 21z"/>
<path d="M4889 5584 c12 -15 21 -31 21 -36 0 -12 -164 -376 -200 -443 -20 -37
-35 -52 -59 -59 -17 -5 -30 -13 -29 -18 4 -12 168 -82 175 -74 3 3 -1 14 -10
24 -27 29 -19 80 26 172 41 83 43 85 76 83 61 -3 79 -33 96 -163 21 -156 38
-212 76 -244 17 -14 42 -26 55 -26 l24 0 -27 41 c-22 33 -31 68 -49 183 -13
86 -19 147 -13 157 5 9 24 20 42 23 51 10 112 67 127 120 27 99 -26 161 -202
235 -140 59 -159 63 -129 25z m171 -85 c50 -28 93 -94 87 -135 -15 -92 -59
-138 -132 -136 -50 0 -128 38 -133 63 -2 9 15 55 38 103 22 48 40 91 40 95 0
14 24 31 43 31 11 0 36 -9 57 -21z"/>
<path d="M2438 5242 c-18 -16 -80 -64 -137 -108 -142 -108 -143 -109 -135
-117 4 -4 19 -7 34 -7 16 0 37 -12 57 -32 59 -62 303 -380 304 -396 1 -10 0
-27 -1 -39 -2 -30 12 -29 52 5 18 16 79 63 135 105 111 84 123 98 123 151 0
70 -33 94 -43 31 -7 -43 -61 -119 -114 -161 -55 -44 -60 -46 -82 -35 -30 16
-153 180 -147 196 8 21 119 105 139 105 10 0 27 -5 37 -10 35 -19 30 7 -11 59
-53 66 -58 66 -73 1 -7 -27 -104 -110 -129 -110 -20 0 -147 161 -147 187 0 19
8 27 75 78 68 52 90 60 125 45 17 -7 33 -10 37 -7 8 8 -44 87 -57 87 -5 0 -24
-13 -42 -28z"/>
<path d="M5585 5230 c6 -27 -1 -78 -37 -294 -11 -66 -16 -74 -91 -163 -81 -94
-102 -109 -136 -98 -41 13 -28 -14 34 -69 35 -31 68 -56 73 -56 6 0 8 17 5 39
-5 39 8 59 135 202 23 27 56 41 162 73 30 9 84 25 119 36 35 11 75 20 88 20
37 0 27 25 -29 70 -52 41 -70 41 -48 -1 18 -33 -9 -52 -124 -88 -105 -33 -130
-30 -122 13 3 11 12 65 21 119 15 86 20 100 41 109 13 6 24 16 23 22 -1 13
-96 96 -110 96 -7 0 -8 -12 -4 -30z"/>
<path d="M3875 5009 c-196 -13 -435 -59 -493 -96 -31 -19 -62 -88 -62 -136 0
-47 -36 -86 -98 -104 -59 -18 -81 -16 -127 12 -22 14 -54 25 -71 25 -73 0
-338 -212 -498 -399 -84 -98 -166 -205 -166 -216 0 -4 -11 -21 -25 -39 -14
-18 -25 -37 -25 -42 0 -5 -11 -25 -24 -45 -22 -31 -54 -105 -103 -234 -9 -22
-21 -53 -28 -70 -45 -104 -80 -266 -101 -455 -23 -217 -19 -310 22 -585 9 -55
19 -113 24 -130 5 -16 16 -55 25 -85 27 -90 77 -129 172 -135 58 -3 71 -13 98
-74 22 -49 19 -66 -20 -122 -19 -28 -35 -58 -35 -66 0 -72 208 -329 388 -481
114 -95 260 -198 353 -246 66 -35 92 -31 149 21 36 32 45 35 81 30 23 -3 62
-16 88 -29 46 -24 46 -24 51 -85 6 -79 29 -104 118 -131 136 -42 189 -47 447
-47 238 0 271 3 410 35 22 5 52 11 67 14 14 3 40 18 57 32 26 22 31 33 31 71
0 56 11 76 62 113 53 38 133 43 164 9 25 -28 87 -59 117 -59 32 0 73 21 184
94 51 34 111 73 135 88 110 69 294 274 427 477 64 98 148 262 199 391 46 115
49 125 96 330 40 174 46 536 11 725 -17 94 -35 115 -99 115 -68 0 -116 66
-116 160 0 40 5 56 29 82 35 41 51 71 51 96 0 50 -161 316 -283 467 -267 331
-682 586 -1108 680 -62 14 -128 25 -148 25 -20 0 -52 4 -71 9 -48 13 -233 18
-355 10z m347 -45 c136 -15 185 -24 273 -49 28 -8 78 -22 113 -32 34 -9 62
-20 62 -25 0 -4 11 -8 25 -8 25 0 217 -88 223 -102 2 -4 10 -8 18 -8 19 0 174
-96 271 -169 94 -70 251 -223 317 -309 46 -60 47 -64 31 -82 -23 -26 -13 -55
14 -40 11 5 24 10 30 10 27 0 201 -293 201 -337 0 -37 -49 -76 -121 -96 -35
-9 -101 -29 -146 -44 -45 -14 -88 -23 -96 -20 -8 3 -39 48 -67 99 -157 278
-407 519 -670 645 -204 98 -334 138 -480 148 -47 3 -103 8 -125 11 -24 3 -36
1 -30 -4 14 -12 109 -32 152 -32 40 0 250 -51 306 -74 256 -109 467 -256 615
-430 69 -82 152 -191 152 -200 0 -3 13 -27 29 -54 44 -75 45 -84 11 -127 -27
-35 -30 -44 -30 -114 0 -148 65 -261 148 -261 59 0 62 -11 62 -230 0 -197 -3
-227 -42 -390 -48 -202 -129 -378 -243 -532 -82 -109 -255 -273 -362 -344 -46
-30 -90 -57 -98 -60 -10 -4 -32 9 -60 35 -54 50 -86 53 -180 15 -81 -33 -135
-88 -135 -139 0 -53 -26 -72 -107 -79 -37 -4 -114 -11 -169 -17 -83 -9 -125
-8 -227 6 -70 9 -143 22 -164 29 -33 11 -39 18 -50 61 -6 27 -20 60 -31 74
-30 41 -127 85 -200 89 -63 4 -63 4 -101 -37 -21 -22 -44 -41 -51 -41 -36 0
-275 185 -376 291 -111 117 -144 180 -110 208 19 16 46 96 46 137 0 98 -121
226 -199 211 -40 -8 -58 8 -76 70 -67 231 -53 572 36 843 19 61 27 80 67 170
62 142 143 274 229 377 69 80 66 78 169 171 88 78 109 85 159 52 20 -13 47
-20 83 -20 58 0 175 37 221 69 40 28 64 84 56 127 -5 29 -2 38 21 59 14 13 43
27 63 30 20 4 47 11 61 17 14 5 58 12 98 15 40 3 68 9 61 13 -16 11 -122 1
-189 -17 -30 -8 -73 -18 -95 -22 -22 -4 -50 -13 -61 -21 -12 -7 -28 -10 -37
-7 -9 3 -45 65 -82 138 -110 222 -92 264 147 324 169 42 428 54 640 29z m-837
-338 c32 -50 47 -80 89 -178 8 -21 22 -38 30 -38 7 0 24 -8 36 -18 22 -18 22
-19 6 -50 -27 -52 -164 -102 -240 -88 -34 7 -36 9 -36 46 0 36 -48 193 -80
262 -16 33 -3 53 38 63 15 4 43 17 62 30 19 13 41 24 48 24 7 1 28 -23 47 -53z
m-318 24 c47 -28 77 -81 117 -204 34 -102 38 -146 15 -146 -47 0 -311 -259
-412 -404 -63 -91 -151 -269 -182 -369 -14 -45 -31 -98 -37 -117 -35 -107 -67
-336 -67 -480 -1 -90 5 -153 20 -225 31 -144 31 -151 -6 -147 -16 2 -37 10
-46 18 -21 19 -32 18 -47 -7 -28 -45 -135 -66 -147 -29 -9 28 9 55 49 74 43
20 70 20 91 0 19 -20 29 -13 21 14 -10 30 -71 55 -113 47 -45 -8 -93 -55 -93
-89 0 -14 9 -40 20 -58 11 -18 20 -43 20 -55 0 -29 15 -37 42 -22 13 7 71 27
130 44 116 35 138 33 138 -14 0 -34 -38 -63 -150 -115 -116 -53 -178 -56 -233
-12 -19 14 -86 221 -87 264 0 13 -5 32 -10 43 -6 10 -18 90 -26 176 -16 162
-16 170 16 428 15 117 25 176 38 215 6 19 18 62 27 95 42 152 113 316 194 448
22 37 41 71 41 75 0 4 13 23 28 43 184 241 509 529 597 529 11 0 34 -9 52 -20z
m2653 -1050 c9 -36 22 -75 30 -87 21 -33 5 -44 -120 -84 -91 -28 -110 -39
-145 -76 -23 -24 -45 -43 -51 -43 -22 0 -54 48 -64 96 -6 28 -10 80 -8 115 l3
64 45 6 c25 3 63 14 85 25 61 28 147 52 179 51 28 -2 31 -6 46 -67z m192 -167
c22 -26 35 -91 49 -253 10 -120 10 -170 -2 -290 l-14 -145 -28 0 c-15 -1 -32
-6 -39 -13 -10 -10 -5 -15 21 -25 l33 -12 -7 -54 c-4 -30 -10 -63 -15 -75 -4
-12 -15 -48 -25 -81 -49 -171 -149 -390 -241 -532 -52 -81 -66 -94 -79 -73 -9
15 -45 12 -45 -3 0 -7 9 -20 20 -30 l21 -18 -23 -32 c-12 -18 -77 -88 -143
-156 -185 -190 -424 -353 -493 -336 -55 13 -69 31 -102 132 -18 54 -43 119
-56 145 -13 26 -24 50 -24 52 0 3 21 14 47 26 57 25 193 122 287 204 120 105
236 252 315 401 54 101 128 297 141 376 5 26 13 64 19 85 6 22 16 100 23 174
10 115 9 157 -6 284 -19 169 -18 172 51 186 21 5 79 24 128 44 101 39 163 46
187 19z m-3169 -962 c43 -39 57 -74 57 -140 0 -70 -18 -96 -58 -86 -15 4 -38
0 -56 -9 -58 -29 -198 -77 -210 -73 -7 3 -27 34 -45 71 -28 54 -32 68 -21 81
7 8 18 15 24 15 24 0 192 108 203 131 27 53 56 56 106 10z m7 -338 c37 -65
231 -263 341 -349 43 -32 112 -81 154 -107 l77 -48 -6 -42 c-4 -23 -11 -46
-17 -52 -5 -5 -9 -15 -9 -23 0 -29 -73 -162 -102 -187 -36 -30 -38 -30 -90 -4
-164 84 -377 255 -533 428 -176 195 -210 258 -165 306 35 38 280 148 306 138
7 -3 27 -30 44 -60z m775 -409 c66 -30 109 -77 99 -107 -4 -11 -23 -48 -43
-81 -20 -34 -52 -94 -71 -133 -19 -40 -40 -73 -47 -73 -8 0 -30 8 -51 19 -20
10 -51 22 -69 25 -56 13 -56 22 -7 146 36 88 45 123 41 151 -11 80 48 101 148
53z m1135 1 c8 -9 10 -28 6 -50 -6 -31 -1 -45 33 -100 22 -35 43 -75 47 -89 3
-14 10 -29 15 -32 5 -3 9 -16 9 -29 0 -19 -7 -26 -27 -30 -16 -4 -53 -15 -83
-27 -99 -36 -94 -37 -128 34 -16 34 -35 83 -43 108 -7 25 -23 56 -36 71 -13
14 -23 32 -23 41 0 66 190 151 230 103z m-830 -224 c134 -22 283 -27 340 -12
19 6 69 12 110 16 41 3 90 10 107 16 42 14 50 8 80 -60 14 -31 34 -76 45 -101
11 -24 25 -73 31 -107 10 -56 9 -64 -8 -83 -26 -28 -51 -41 -100 -52 -203 -46
-476 -59 -649 -33 -197 30 -281 59 -292 99 -13 54 40 206 107 302 36 52 11 51
229 15z"/>
<path d="M3865 4865 c-39 -20 -75 -64 -75 -93 0 -61 65 -132 120 -132 61 0
120 61 120 124 0 48 -19 80 -60 101 -37 19 -67 19 -105 0z m63 -31 c47 -33 67
-108 36 -138 -22 -22 -38 -20 -73 10 -39 33 -53 79 -34 117 15 31 38 34 71 11z"/>
<path d="M4160 4851 c-34 -10 -49 -54 -27 -79 22 -24 21 -30 -5 -51 -28 -23
-18 -48 27 -67 28 -11 40 -12 58 -3 61 32 72 67 36 113 -20 26 -21 28 -3 47
11 12 14 23 8 29 -14 14 -65 20 -94 11z"/>
<path d="M3620 4819 c-92 -28 -105 -37 -103 -66 2 -44 58 -226 71 -231 6 -2
16 15 22 36 7 29 17 42 34 46 36 9 90 82 90 122 0 64 -57 110 -114 93z"/>
<path d="M4362 4804 c-16 -11 -22 -25 -22 -55 0 -22 -4 -49 -10 -59 -22 -41
31 -84 84 -69 63 18 82 62 46 109 -17 22 -17 27 -4 41 34 38 -47 66 -94 33z"/>
<path d="M4908 4693 c-2 -22 -9 -29 -30 -31 -31 -4 -34 -13 -16 -41 9 -15 7
-26 -9 -57 -16 -32 -25 -39 -49 -39 -27 0 -29 3 -32 43 -3 36 1 47 26 72 35
35 20 47 -29 22 -39 -19 -59 -53 -59 -98 0 -39 24 -67 70 -84 19 -7 43 -20 52
-28 14 -12 20 -12 33 -2 8 7 15 21 15 32 0 11 13 38 28 61 55 83 66 132 34
160 -25 23 -30 21 -34 -10z"/>
<path d="M5016 4498 c-68 -51 -65 -140 6 -182 42 -25 55 -9 28 36 -19 33 -19
37 -5 52 22 21 37 20 58 -4 23 -27 83 -28 92 -1 15 49 -54 121 -116 121 -19 0
-47 -10 -63 -22z"/>
<path d="M5248 4324 c-49 -47 -88 -93 -88 -102 0 -10 22 -39 48 -65 43 -42 52
-47 92 -47 50 1 84 22 100 65 13 34 4 71 -28 113 -23 30 -24 37 -14 65 11 29
3 58 -17 57 -3 0 -45 -39 -93 -86z"/>
<path d="M4819 4092 c-24 -27 -52 -63 -61 -80 -10 -18 -25 -32 -36 -32 -10 0
-27 -6 -37 -14 -19 -14 -19 -15 -2 -33 9 -11 17 -29 17 -41 0 -31 49 -134 60
-127 13 8 13 42 0 50 -5 3 -10 37 -10 74 0 58 4 74 30 113 16 24 38 52 49 62
17 16 20 16 35 1 9 -9 16 -27 16 -39 0 -13 7 -43 15 -66 33 -92 13 -160 -68
-232 -43 -39 -45 -61 -3 -38 52 27 94 71 120 125 15 30 31 55 36 55 13 0 23
-85 16 -128 -4 -25 -18 -48 -43 -72 -29 -28 -33 -36 -20 -38 10 -2 32 6 51 17
60 37 79 16 29 -31 -71 -67 -161 -58 -261 24 -63 51 -122 145 -122 194 l0 23
-35 -20 c-25 -15 -35 -28 -35 -45 0 -90 267 -334 352 -322 17 2 24 11 28 33 4
23 16 35 53 55 26 14 56 39 67 55 27 41 27 118 0 143 -12 11 -26 47 -35 92
-18 85 -35 111 -60 90 -8 -7 -17 -11 -18 -9 -9 12 -37 100 -42 134 -15 92 -24
95 -86 27z"/>
<path d="M3372 4039 c-141 -66 -336 -234 -427 -369 -58 -85 -66 -122 -32 -145
24 -16 28 -15 85 13 100 50 182 111 278 206 151 150 218 260 184 301 -16 20
-36 18 -88 -6z m46 -50 c6 -32 -150 -229 -182 -229 -19 0 -32 110 -16 139 17
32 152 114 180 109 8 -2 16 -10 18 -19z"/>
<path d="M3431 3842 c-71 -96 -191 -208 -300 -280 -51 -33 -98 -63 -104 -65
-27 -9 8 -25 65 -29 147 -13 307 -107 559 -328 220 -194 243 -230 118 -192
-55 16 -67 25 -85 57 -39 67 -64 84 -144 99 -188 35 -564 39 -675 6 -16 -4
-48 -11 -70 -15 -85 -14 -165 -79 -165 -134 0 -16 26 -70 63 -130 34 -56 73
-122 87 -147 44 -75 70 -97 109 -90 40 6 81 41 81 70 1 87 29 99 256 104 216
5 243 -1 276 -60 18 -32 34 -45 73 -60 28 -11 54 -23 58 -27 5 -5 -35 -54 -87
-111 -53 -56 -96 -106 -96 -111 0 -5 7 -12 16 -16 11 -4 81 62 248 232 177
182 236 237 249 232 45 -17 34 -29 -401 -445 -30 -28 -51 -56 -47 -62 9 -15
16 -10 162 129 l132 126 207 0 206 0 271 -268 c155 -153 277 -265 284 -263 7
3 13 13 13 22 0 12 -271 344 -337 412 -40 41 -83 101 -83 116 0 11 9 16 26 16
55 0 144 42 177 82 19 24 44 42 66 48 104 28 365 33 414 8 12 -6 17 -21 17
-49 0 -31 7 -47 29 -70 33 -33 47 -35 95 -15 36 15 64 54 92 131 18 50 33 80
93 185 17 30 31 65 31 77 0 26 -68 79 -120 93 -120 32 -606 42 -726 14 -95
-21 -145 -57 -161 -115 -12 -40 -19 -48 -56 -63 -59 -24 -157 -33 -157 -15 0
17 173 165 273 232 91 62 188 110 272 132 36 10 65 21 65 25 0 4 -13 13 -29
19 -82 35 -326 -114 -596 -363 -33 -30 -65 -55 -71 -56 -6 0 -19 9 -30 21 -19
21 -18 21 146 183 91 89 209 197 263 240 53 43 97 83 97 88 0 5 -23 35 -51 66
-28 32 -62 76 -76 100 -14 24 -30 41 -36 39 -6 -2 -16 -32 -22 -68 -12 -73
-55 -171 -113 -256 -62 -90 -251 -303 -270 -303 -15 0 -255 279 -342 397 -74
101 -145 283 -159 412 -3 30 -11 56 -17 58 -6 2 -34 -27 -63 -65z m-62 -298
c69 -33 94 -55 286 -248 206 -207 690 -728 836 -899 13 -16 39 -45 57 -65 18
-21 38 -46 44 -57 10 -19 10 -19 -8 -5 -49 39 -71 60 -128 120 -240 254 -652
665 -780 780 -181 161 -342 272 -443 305 -69 23 -84 40 -52 63 33 24 70 40 93
41 10 1 53 -15 95 -35z m1799 -444 c116 -10 153 -22 187 -59 19 -22 19 -22
-13 -84 -18 -34 -43 -81 -56 -105 -13 -23 -26 -51 -29 -62 -8 -33 -36 -35 -91
-8 l-51 25 36 16 c43 18 79 61 79 95 0 28 -35 72 -57 72 -7 0 -13 5 -13 10 0
6 4 10 8 10 5 0 17 6 27 14 18 13 18 14 -4 25 -47 25 -119 -24 -109 -75 2 -12
18 -24 45 -32 70 -22 66 -77 -7 -88 -24 -4 -40 -12 -42 -23 -3 -13 -19 -15
-123 -12 -66 1 -124 5 -128 8 -5 3 -2 12 6 21 64 73 60 179 -8 210 -39 18 -60
15 -94 -14 -55 -46 -39 -116 30 -134 45 -12 48 -33 6 -38 -19 -2 -27 -9 -27
-22 0 -25 -30 -40 -109 -57 -74 -15 -80 -13 -111 55 -12 26 -33 70 -46 99 -13
28 -24 58 -24 65 1 18 31 54 55 63 82 32 433 45 663 25z m-1625 -20 c51 -13
87 -48 87 -84 1 -24 -64 -153 -96 -193 -20 -25 -23 -26 -53 -14 -38 17 -39 22
-1 43 57 33 65 107 14 130 -22 10 -25 16 -19 45 5 30 4 33 -18 33 -36 0 -75
-36 -88 -80 -14 -45 -7 -77 21 -110 11 -13 17 -27 13 -30 -12 -11 -112 -20
-118 -11 -2 5 4 20 15 34 24 30 26 54 11 126 -13 63 -43 101 -80 101 -55 0
-67 -32 -16 -42 16 -3 20 -11 20 -40 0 -20 8 -44 18 -55 33 -38 17 -73 -39
-82 -30 -5 -39 -11 -39 -26 0 -18 -11 -21 -95 -31 -85 -9 -125 -20 -238 -66
-44 -17 -42 -20 -160 184 -23 38 -23 40 -6 66 31 48 92 82 179 101 33 7 65 15
70 16 33 9 576 -4 618 -15z m922 -200 c17 -30 39 -75 50 -99 l19 -43 -26 -23
c-30 -26 -169 -61 -192 -48 -23 13 -166 186 -166 200 0 8 12 13 29 13 44 0
168 28 199 45 40 22 53 15 87 -45z m-676 23 c41 -10 76 -23 78 -28 2 -6 -39
-55 -89 -108 l-93 -98 -52 11 c-69 15 -87 36 -71 81 12 37 62 123 87 152 17
20 18 20 140 -10z m304 -182 c87 -84 81 -92 -75 -89 -109 3 -123 5 -126 21 -5
23 102 127 130 127 6 0 37 -26 71 -59z"/>
<path d="M2961 3046 c-18 -19 -22 -31 -16 -56 4 -18 2 -44 -5 -60 -17 -41 -5
-77 30 -95 44 -23 78 -19 111 14 32 33 37 65 14 98 -10 14 -13 32 -9 48 5 19
1 32 -17 51 -30 32 -78 32 -108 0z"/>
<path d="M4453 3783 c-66 -26 124 -273 281 -366 136 -81 197 -87 179 -18 -5
18 -12 21 -53 19 -62 -3 -136 41 -240 142 -81 79 -120 140 -120 189 0 17 -6
31 -16 35 -9 3 -16 6 -17 5 -1 0 -8 -3 -14 -6z"/>
<path d="M3258 2188 c-202 -218 -195 -208 -158 -228 18 -10 36 5 156 122 75
73 140 135 145 136 17 6 9 51 -10 62 -11 5 -24 10 -29 10 -5 0 -52 -46 -104
-102z"/>
<path d="M2855 4447 c-37 -37 -46 -76 -21 -97 10 -8 33 -9 69 -5 45 6 55 4 60
-9 4 -10 1 -18 -6 -20 -42 -13 -48 -17 -45 -33 5 -29 34 -26 72 7 37 33 45 64
26 100 -14 26 -67 43 -92 29 -13 -7 -24 -7 -30 -1 -7 7 -3 12 11 17 25 8 27
18 6 35 -12 10 -21 6 -50 -23z"/>
<path d="M2161 3436 c-26 -27 -15 -42 25 -32 15 4 26 2 29 -6 4 -9 26 -13 64
-13 44 0 64 -5 80 -19 26 -24 26 -27 1 -54 -22 -23 -93 -31 -105 -12 -9 14
-25 12 -25 -3 0 -18 39 -53 68 -62 33 -10 80 13 97 46 8 15 15 52 15 82 l0 54
-85 21 c-110 28 -136 28 -164 -2z"/>
<path d="M2204 3128 c-11 -18 27 -38 73 -38 34 0 46 -5 59 -25 24 -37 5 -55
-60 -55 -57 0 -93 -18 -83 -42 4 -12 17 -14 59 -11 114 10 149 36 128 97 -6
18 -8 40 -4 49 3 9 -2 19 -13 26 -26 13 -151 13 -159 -1z"/>
<path d="M5747 3253 c-26 -26 -29 -27 -38 -10 -14 23 -46 22 -60 -4 -16 -31
-2 -85 28 -109 34 -27 59 -25 90 6 23 23 29 24 49 13 50 -26 74 45 33 102 -27
38 -65 38 -102 2z"/>
<path d="M5680 3009 c-27 -28 -31 -37 -28 -77 3 -52 28 -72 28 -24 0 22 8 36
29 51 35 25 62 26 102 6 29 -15 29 -16 13 -46 -19 -38 -4 -65 27 -48 14 7 19
21 19 50 0 70 -51 119 -124 119 -25 0 -43 -8 -66 -31z"/>
<path d="M5621 2595 c-45 -51 -41 -107 5 -64 35 33 58 22 64 -31 7 -57 15 -70
45 -70 81 0 94 144 16 184 -52 27 -95 21 -130 -19z"/>
<path d="M5545 2381 c-7 -13 20 -39 58 -55 45 -18 64 -43 50 -64 -13 -20 -44
-18 -91 4 -39 18 -66 15 -70 -8 -2 -12 15 -26 65 -49 61 -29 70 -30 92 -18 29
16 77 127 62 142 -13 13 -123 57 -143 57 -9 0 -19 -4 -23 -9z"/>
<path d="M5200 1874 c-27 -26 -50 -53 -50 -61 0 -16 113 -133 128 -133 20 0
102 99 102 124 0 57 -35 97 -97 110 -29 7 -38 2 -83 -40z"/>
<path d="M5050 1709 c0 -11 11 -37 25 -57 58 -85 11 -115 -50 -31 -35 49 -57
58 -63 26 -2 -8 9 -34 23 -56 15 -22 25 -48 23 -58 -6 -34 -33 -24 -63 24 -19
30 -38 49 -52 51 -37 5 -28 -31 20 -90 50 -62 78 -70 116 -35 14 14 40 32 56
41 17 8 46 29 65 45 31 26 33 31 20 47 -88 113 -120 138 -120 93z"/>
<path d="M3106 1656 c4 -24 1 -59 -5 -79 -12 -34 -80 -107 -101 -107 -6 0 -10
-4 -10 -10 0 -5 17 -10 38 -10 105 0 176 128 122 218 -30 48 -51 43 -44 -12z"/>
<path d="M1859 4160 c-49 -8 -89 -26 -89 -38 0 -4 15 -34 33 -67 l32 -60 57 3
c67 3 108 16 108 35 0 35 -69 140 -89 136 -3 -1 -27 -5 -52 -9z"/>
<path d="M6075 4084 c-24 -42 -34 -69 -27 -76 13 -13 132 -39 151 -33 25 8 84
124 71 140 -10 12 -103 35 -141 35 -11 0 -31 -24 -54 -66z"/>
<path d="M1891 3208 c-6 -7 -19 -22 -29 -34 -15 -19 -37 -23 -212 -37 -219
-18 -265 -31 -318 -91 -90 -103 -76 -335 27 -414 75 -58 90 -60 444 -36 86 6
100 5 117 -11 13 -12 24 -15 30 -9 11 11 1 144 -11 144 -4 0 -14 -12 -21 -27
-7 -15 -26 -34 -41 -41 -31 -15 -350 -35 -412 -25 -51 8 -89 35 -122 86 -22
34 -25 52 -25 122 -1 69 3 89 22 119 51 83 99 99 352 116 166 12 208 7 208
-21 0 -6 5 -7 10 -4 12 8 13 145 1 163 -7 12 -10 12 -20 0z"/>
<path d="M6113 3204 c-6 -11 -11 -43 -12 -71 -2 -42 1 -53 13 -53 8 0 20 9 26
20 18 34 31 29 178 -67 28 -19 52 -42 52 -51 0 -11 -37 -38 -101 -74 -98 -57
-132 -68 -144 -48 -3 6 -13 10 -21 10 -11 0 -14 -17 -14 -78 0 -43 3 -81 6
-85 3 -3 17 7 31 23 13 16 36 35 51 43 15 8 79 44 141 81 l115 66 85 -1 c122
0 182 -12 199 -38 8 -11 18 -21 23 -21 12 0 12 167 0 174 -5 3 -16 -5 -25 -19
-16 -24 -19 -25 -144 -25 -144 0 -126 -6 -302 113 -55 37 -111 79 -124 94 -23
24 -24 25 -33 7z"/>
<path d="M6046 2502 c-2 -4 -27 -65 -56 -136 -28 -71 -74 -181 -102 -244 -57
-127 -56 -133 5 -167 45 -25 55 -16 27 23 l-22 30 27 74 c16 40 36 82 46 92
16 18 20 18 56 3 21 -9 94 -39 162 -67 266 -109 283 -118 300 -157 8 -18 17
-33 21 -33 10 0 73 161 66 168 -4 3 -20 -2 -37 -12 -30 -18 -31 -18 -122 20
-322 132 -383 158 -396 170 -12 11 -9 24 18 91 40 94 45 101 85 111 l31 9 -32
16 c-34 18 -69 22 -77 9z"/>
<path d="M2007 2364 c-4 -4 -7 -20 -7 -35 0 -57 -35 -84 -285 -214 -71 -37
-134 -71 -139 -76 -14 -13 -60 -11 -91 3 -14 6 -27 9 -30 6 -3 -3 12 -37 33
-77 39 -72 52 -80 52 -30 0 33 14 43 258 171 87 46 113 56 118 45 6 -16 -16
-80 -116 -347 -89 -237 -91 -243 -79 -255 9 -9 78 22 254 118 242 131 256 137
295 137 22 0 40 5 40 10 0 14 -59 118 -71 126 -5 3 -9 -11 -9 -31 0 -52 -31
-78 -185 -160 -71 -37 -145 -76 -163 -87 -18 -10 -37 -18 -42 -18 -16 0 -12
37 9 88 21 51 94 248 161 434 25 72 40 127 37 140 -8 31 -31 61 -40 52z"/>
<path d="M5616 1711 c-25 -33 -46 -64 -46 -69 0 -6 16 -8 38 -6 36 5 44 -1
227 -155 104 -89 195 -171 201 -183 7 -13 10 -35 7 -50 -7 -36 10 -36 40 -1
12 15 37 43 55 64 43 49 42 61 -6 53 -37 -6 -42 -2 -202 131 -220 183 -250
212 -250 247 0 15 -4 28 -9 28 -4 0 -29 -27 -55 -59z"/>
<path d="M2488 1577 c3 -30 -7 -44 -143 -187 -225 -238 -220 -233 -266 -226
-21 3 -39 3 -39 -2 0 -14 139 -146 146 -139 4 4 2 18 -4 32 -10 21 -9 32 3 53
8 15 94 110 193 211 177 183 178 183 212 176 33 -7 34 -7 20 11 -25 34 -103
104 -115 104 -7 0 -9 -13 -7 -33z"/>
<path d="M5273 1377 c-121 -50 -193 -129 -193 -212 0 -54 16 -88 60 -130 29
-28 36 -30 108 -30 54 0 98 8 146 24 93 32 158 32 191 1 30 -28 44 -73 37
-120 -16 -114 -173 -185 -287 -130 -25 12 -49 19 -52 16 -7 -7 62 -82 88 -97
20 -10 97 14 150 47 77 48 139 141 139 210 0 80 -54 154 -127 173 -45 12 -85
6 -245 -39 -74 -20 -79 -20 -113 -4 -72 34 -80 119 -16 187 60 65 149 84 222
46 61 -31 63 -16 7 50 -31 36 -44 37 -115 8z"/>
<path d="M2827 1304 c-3 -4 1 -20 10 -37 13 -27 14 -48 4 -171 -10 -129 -26
-426 -26 -486 0 -14 6 -26 16 -28 8 -1 123 90 260 209 134 116 254 215 267
220 34 13 27 27 -33 56 -52 26 -82 26 -57 1 33 -33 5 -69 -188 -239 -46 -41
-100 -87 -118 -104 -48 -43 -61 -49 -68 -31 -3 8 1 123 8 255 13 224 16 242
36 264 12 13 22 26 22 29 0 4 -26 19 -57 34 -32 16 -61 29 -64 31 -3 2 -8 1
-12 -3z"/>
<path d="M4560 1037 c-242 -70 -255 -76 -197 -100 39 -17 41 -22 125 -322 55
-196 56 -199 37 -235 -9 -18 -14 -34 -12 -37 7 -7 187 50 187 59 0 4 -9 8 -19
8 -38 0 -69 42 -95 131 -33 108 -33 127 0 139 63 24 84 15 199 -85 118 -103
175 -133 222 -118 37 13 36 35 -2 45 -29 7 -251 185 -268 214 -4 8 5 32 23 60
36 58 40 116 10 174 -33 66 -119 93 -210 67z m116 -68 c49 -44 68 -124 42
-172 -14 -28 -41 -48 -97 -70 -76 -31 -83 -24 -121 109 -43 151 -34 166 92
160 45 -2 64 -8 84 -27z"/>
<path d="M3606 982 c-3 -5 5 -17 19 -26 22 -14 25 -24 25 -74 0 -31 -5 -109
-11 -172 -5 -63 -14 -159 -19 -214 -7 -87 -11 -101 -36 -127 -33 -34 -30 -36
81 -43 283 -19 278 -19 306 6 28 25 54 67 45 75 -2 3 -29 -7 -60 -21 -47 -22
-68 -26 -150 -26 -118 0 -120 2 -111 133 10 151 2 140 101 136 80 -4 86 -6
108 -34 13 -16 27 -27 30 -24 9 9 20 139 12 139 -4 0 -20 -10 -36 -21 -26 -19
-37 -21 -101 -16 -40 3 -78 12 -85 19 -10 10 -11 35 -3 118 6 58 15 109 20
114 13 14 156 7 196 -9 18 -8 35 -21 38 -30 16 -50 17 -51 31 -20 18 41 17 82
-2 89 -9 3 -34 6 -57 6 -23 0 -69 4 -102 9 -107 17 -232 23 -239 13z"/>
</g>
</svg>
