<?xml version="1.0" standalone="no"?>
<!DOCTYPE svg PUBLIC "-//W3C//DTD SVG 20010904//EN"
 "http://www.w3.org/TR/2001/REC-SVG-20010904/DTD/svg10.dtd">
<svg version="1.0" xmlns="http://www.w3.org/2000/svg"
 width="816.000000pt" height="816.000000pt" viewBox="0 0 816.000000 816.000000"
 preserveAspectRatio="xMidYMid meet">
<metadata>
Created by potrace 1.12, written by Peter Selinger 2001-2015
</metadata>
<g transform="translate(0.000000,816.000000) scale(0.100000,-0.100000)"
fill="#000000" stroke="none">
<path d="M0 4080 l0 -4080 4080 0 4080 0 0 4080 0 4080 -4080 0 -4080 0 0
-4080z m7113 1839 c49 -13 105 -63 128 -114 18 -38 19 -116 19 -1720 0 -1604
-1 -1682 -19 -1720 -23 -51 -79 -101 -128 -114 -51 -14 -6013 -15 -6063 -1
-49 13 -109 66 -131 114 -18 39 -19 108 -19 1711 0 1162 3 1682 11 1709 14 50
73 113 124 131 34 12 480 14 3040 15 2064 0 3012 -3 3038 -11z"/>
<path d="M1268 4211 c-30 -19 -52 -44 -67 -74 l-22 -44 3 -700 3 -699 24 -36
c13 -19 40 -46 59 -59 l36 -24 1247 0 1247 0 39 31 c21 17 47 46 58 65 19 33
20 55 23 712 2 458 -1 691 -8 718 -13 48 -63 107 -107 125 -27 12 -252 14
-1261 14 l-1228 0 -46 -29z"/>
</g>
</svg>
